<svg preserveAspectRatio="none" width="100%" height="100%" overflow="visible" style="display: block;" viewBox="0 0 148 24.1923" fill="none" xmlns="http://www.w3.org/2000/svg">
<g id="Frame 66">
<path id="Vector" d="M21.3462 9.97518C19.9817 9.97518 18.6838 9.71006 17.4192 9.17982C16.6205 8.84842 15.8884 8.4176 15.1895 7.88735L15.2228 16.7026C15.2228 18.691 14.4241 20.5469 12.9931 21.9719C11.8284 23.1318 10.3641 23.8609 8.7667 24.0929C8.40063 24.1592 8.00128 24.1923 7.63521 24.1923C5.93798 24.1923 4.30731 23.6289 2.97615 22.6347C2.70992 22.4359 2.47697 22.237 2.24402 22.0051C0.679903 20.4806 -0.118792 18.4259 0.0143237 16.2387C0.114161 14.5817 0.77974 12.9909 1.87795 11.7648C3.34222 10.1409 5.40552 9.21296 7.60193 9.21296C8.00128 9.21296 8.36735 9.2461 8.73342 9.31238V10.3729V13.3223C8.40063 13.1898 8.03456 13.1235 7.63521 13.1235C5.63847 13.1235 4.0078 14.7474 4.04108 16.7358C4.07436 18.0282 4.77322 19.1219 5.80487 19.7515C6.30405 20.0498 6.83652 20.2155 7.43554 20.2486C7.90144 20.2818 8.36735 20.2155 8.7667 20.0829C10.1977 19.619 11.2293 18.2602 11.2293 16.7026V10.8037V0H15.1895C15.1895 0.397682 15.2228 0.762223 15.3227 1.12676C15.6222 2.61807 16.4541 3.91054 17.6522 4.80532C18.6838 5.56754 19.9484 6.03151 21.3462 6.03151V7.09199V9.97518Z" fill="var(--fill-0, white)"/>
<path id="Vector_2" d="M78.1914 2.42681H68.3857C65.7355 2.42681 63.6154 4.55028 63.6154 7.20461V16.9877C63.6154 19.642 65.7734 21.7655 68.3857 21.7655H78.1535C80.8037 21.7655 82.9238 19.642 82.9238 16.9877V7.20461C82.9617 4.55028 80.8037 2.42681 78.1914 2.42681ZM79.5543 12.0962C79.5543 15.5468 76.7527 18.3528 73.3075 18.3528C69.8622 18.3528 67.0606 15.5468 67.0228 12.0962C67.0228 8.64553 69.8244 5.83952 73.2696 5.83952C76.7527 5.83952 79.5543 8.64553 79.5543 12.0962ZM81.1444 5.83952C81.1444 6.71166 80.4629 7.3942 79.5922 7.3942C78.7214 7.3942 78.0399 6.71166 78.0399 5.83952C78.0399 4.96739 78.7214 4.28484 79.5922 4.28484C80.4251 4.28484 81.1444 4.96739 81.1444 5.83952ZM73.2696 8.26634C71.1495 8.26634 69.4458 9.97269 69.4458 12.0962C69.4458 14.2196 71.1495 15.926 73.2696 15.926C75.3897 15.926 77.0934 14.2196 77.0934 12.0962C77.1313 9.97269 75.3897 8.26634 73.2696 8.26634ZM85.3847 16.9877C85.3847 20.9692 82.1666 24.1923 78.1914 24.1923H68.3857C64.4105 24.1923 61.1924 20.9692 61.1924 16.9877V7.20461C61.1924 3.22311 64.4105 0 68.3857 0H78.1535C82.1288 0 85.3468 3.22311 85.3468 7.20461V16.9877H85.3847Z" fill="var(--fill-0, white)"/>
<path id="Vector_3" d="M136.616 0.71167C130.328 0.71167 125.231 5.83539 125.231 12.1549C125.231 17.8918 129.436 22.6293 134.914 23.4571V15.1874H132.097V12.1797H134.914V10.1781C134.914 6.86433 136.52 5.41008 139.26 5.41008C140.572 5.41008 141.266 5.5083 141.594 5.55217V8.17744H139.725C138.562 8.17744 138.156 9.28649 138.156 10.5357V12.1797H141.565L141.103 15.1874H138.156V23.4809C143.713 22.7237 148 17.9481 148 12.1549C148 5.83539 142.903 0.71167 136.616 0.71167Z" fill="var(--fill-0, white)"/>
</g>
</svg>
