<svg preserveAspectRatio="none" width="100%" height="100%" overflow="visible" style="display: block;" viewBox="0 0 108 40" fill="none" xmlns="http://www.w3.org/2000/svg">
<g id="Frame 82">
<path id="Vector" d="M27.5678 0H37.4906V39.1006H27.5678V33.8187H9.80915L19.7745 24.2541H27.5678V13.8901L0 40V26.2098L27.5678 0Z" fill="var(--fill-0, #CCCCCC)"/>
<path id="Vector_2" d="M48.3502 10.2926H40.2019V0.0570801H75.7902L65.0868 10.2926H59.0394V39.1434H48.3502V10.2926Z" fill="var(--fill-0, #CCCCCC)"/>
<path id="Vector_3" d="M78.2744 9.46465H98.1483L108 0.0570801H78.2744L68.4085 9.46465V39.1434H91.0363C92.4558 39.1292 93.7902 38.7866 95.0252 38.1299C96.2744 37.4589 97.3675 36.5596 98.3044 35.4033C99.2555 34.2612 99.9937 32.9621 100.533 31.506C101.058 30.0357 101.342 28.4939 101.342 26.8951C101.342 25.0821 101.073 23.4261 100.533 21.9557C100.008 20.4853 99.2697 19.2291 98.3328 18.187C97.3817 17.1306 96.2886 16.3169 95.0252 15.7602C93.776 15.1891 92.4416 14.9036 90.9795 14.9036H80.418V24.2969H89.0347C89.8154 24.3112 90.4117 24.5681 90.8375 25.0535C91.2634 25.5389 91.4905 26.1813 91.4905 26.995C91.4905 27.5232 91.3912 27.9943 91.1924 28.4083C91.0079 28.8222 90.724 29.1363 90.3549 29.379C89.9858 29.6217 89.5457 29.7359 89.0347 29.7359H78.2744V9.46465Z" fill="var(--fill-0, #CCCCCC)"/>
</g>
</svg>
