<svg preserveAspectRatio="none" width="100%" height="100%" overflow="visible" style="display: block;" viewBox="0 0 80 40" fill="none" xmlns="http://www.w3.org/2000/svg">
<g id="Frame 83">
<path id="Vector" d="M17.9846 1.43366C13.1533 -1.13222 7.85842 0.528709 7.85842 0.528709C7.85842 0.528709 8.63105 4.73317 13.6746 6.8354C19.0346 9.06984 24.6422 8.30082 24.6422 8.30082C24.6422 8.30082 23.0374 4.11498 17.9846 1.43366Z" fill="var(--fill-0, #CCCCCC)"/>
<path id="Vector_2" d="M27.3362 29.0084C25.6369 30.8614 23.4655 32.217 21.0546 32.9299C17.1002 34.1234 13.3655 33.198 11.3734 31.0809C10.4165 30.1307 9.81175 28.8829 9.65874 27.543C17.1747 28.5951 25.0202 27.7385 28.3714 23.8767C30.572 21.3574 31.1044 17.3019 28.6004 13.9502C26.4146 11.0343 21.3637 9.08845 15.3613 9.69548C7.48606 10.4961 0.411342 15.87 0.0166473 24.5452C-0.389218 33.4121 6.6706 40 16.3369 40C22.5254 40 27.6509 37.9201 30.2257 35.2667C30.2257 35.2425 30.2089 35.2127 30.1996 35.1866C29.3893 33.0659 28.4325 31.004 27.3362 29.0159V29.0084ZM14.6967 16.0934C17.2901 15.1233 20.8629 15.235 21.6038 17.5532C22.2313 19.5065 20.416 21.713 16.6199 22.3684C14.6743 22.7055 11.8873 22.7706 9.58427 22.1822C9.75183 20.7094 10.988 17.4825 14.6967 16.0953V16.0934Z" fill="var(--fill-0, #CCCCCC)"/>
<path id="Vector_3" fill-rule="evenodd" clip-rule="evenodd" d="M47.1137 10.4366L38.9909 30.1592C37.9203 27.0552 35.6006 22.4467 32.847 18.6016C32.1656 21.322 30.8791 24.5266 28.82 27.2731C30.8512 30.2653 32.968 35.263 34.1447 39.2329H43.5001L56.2197 10.4366H47.1137Z" fill="var(--fill-0, #CCCCCC)"/>
<path id="Vector_4" fill-rule="evenodd" clip-rule="evenodd" d="M75.8892 12.6896C73.0407 10.4273 69.8906 9.71038 66.666 9.59121C63.9444 9.52118 61.2282 9.86908 58.612 10.6228L55.3781 18.0709C55.4099 18.1038 55.4434 18.1349 55.4787 18.164C58.7107 16.1158 62.7135 15.5069 65.953 15.9575C69.3749 16.4342 70.9797 18.7207 70.9797 20.9533C66.3458 20.283 61.3767 20.4506 57.5248 21.5678C51.7105 23.2436 49.5285 27.8987 50.1019 32.2186C50.6437 36.2834 54.4957 40 61.1943 40C66.0349 40 70.0247 36.7284 71.1696 34.6001V39.2179L80 39.2049V22.577C80 17.57 78.4473 14.7211 75.8892 12.6896ZM65.6886 32.2949C63.0952 33.265 59.5224 33.1533 58.7796 30.837C58.154 28.8837 59.9693 26.6772 63.7654 26.0199C65.7109 25.6847 68.4961 25.6196 70.801 26.2061C70.6316 27.6827 69.3972 30.9077 65.6886 32.2949Z" fill="var(--fill-0, #CCCCCC)"/>
</g>
</svg>
