<svg preserveAspectRatio="none" width="100%" height="100%" overflow="visible" style="display: block;" viewBox="0 0 160 30" fill="none" xmlns="http://www.w3.org/2000/svg">
<g id="Frame 84">
<path id="path3028" d="M150.844 22.7558C150.802 23.093 150.678 23.9803 149.549 24.0955H139.632C138.503 23.9803 138.297 23.093 138.255 22.7558V7.0857C138.297 6.74763 138.453 6.02903 139.582 5.91378H149.553C150.683 6.02903 150.802 6.74763 150.844 7.0857V22.7558ZM154.278 0.00970341H134.821C131.898 0.251123 129.428 1.7688 129.099 5.16404V24.5646C129.428 27.9599 131.898 29.7586 134.821 30H154.278C157.201 29.7586 159.67 27.9599 160 24.5646V5.16404C159.67 1.7688 157.201 0.251123 154.278 0.00970341ZM75.5364 5.91378H66.838V0.00970341H93.3907V5.91378H84.6923V30H75.5364V5.91378ZM64.0915 5.91378V0.00970341H40.2856V30L64.4079 29.9935L64.4166 24.0959H49.4648L49.4663 17.6726H64.0914V11.7831H49.4663V5.91379L64.0915 5.91378ZM117.196 10.5622C117.196 11.2113 117.039 11.7807 115.9 11.7807H105.293V5.89397H115.914C117.206 5.89397 117.196 6.75936 117.196 7.29963V10.5622ZM119.732 18.3415C122.589 18.1073 125.436 16.1173 125.436 12.8491V5.44509C125.105 2.06562 122.628 0.240611 119.691 0H96.1371L96.1379 30H105.293V18.3415H108.937L114.889 30H125.418L118.331 18.3415H119.732ZM21.3332 30L27.4675 11.1624V30H36.6235V0.00970341H24.2633L18.3118 15.0053L12.3602 0.00970341H0V30H9.15596V11.1624L15.3357 30H21.3332Z" fill="var(--fill-0, #CCCCCC)"/>
</g>
</svg>
