<svg preserveAspectRatio="none" width="100%" height="100%" overflow="visible" style="display: block;" viewBox="0 0 190.008 32.009" fill="none" xmlns="http://www.w3.org/2000/svg">
<g id="Group">
<path id="Vector" d="M12.2193 31.3194V0.6875H22.7609C24.1827 0.6875 25.5132 0.922987 26.7559 1.39396C27.995 1.86494 29.0769 2.52654 29.998 3.38251C30.9191 4.23848 31.6428 5.25892 32.1729 6.4401C32.7029 7.625 32.9661 8.92952 32.9661 10.3537C32.9661 11.7778 32.6992 13.1272 32.1729 14.3121C31.6428 15.497 30.9191 16.5137 29.998 17.3697C29.0769 18.2257 27.995 18.8873 26.7559 19.3582C25.5132 19.8291 24.1827 20.0647 22.7609 20.0647H17.8665V31.3157H12.2193V31.3194ZM22.8449 14.5925C24.3216 14.5925 25.44 14.1626 26.193 13.3103C26.946 12.4544 27.3225 11.4713 27.3225 10.3574C27.3225 9.8154 27.2312 9.28836 27.052 8.77627C26.8692 8.26419 26.5915 7.8119 26.2149 7.4269C25.8385 7.0419 25.3706 6.73539 24.815 6.50738C24.2558 6.27936 23.6015 6.1635 22.8485 6.1635H17.8702V14.5925H22.8485H22.8449Z" fill="var(--fill-0, #CCCCCC)"/>
<path id="Vector_2" d="M35.2286 0.6875H46.1467C47.6526 0.6875 49.0197 0.930463 50.2478 1.41639C51.4759 1.90231 52.5286 2.57139 53.4059 3.42736C54.2831 4.28334 54.9593 5.30378 55.4344 6.48495C55.9097 7.66986 56.1472 8.95943 56.1472 10.3574C56.1472 11.3853 55.9791 12.346 55.6464 13.2468C55.3101 14.1439 54.8533 14.9587 54.2649 15.6839C53.6799 16.4127 52.9965 17.0519 52.2143 17.6089C51.432 18.1658 50.6096 18.5994 49.7469 18.9134L49.7068 19.2125L57.7409 30.9793V31.3231H51.2566L43.5149 19.8142L40.8795 15.9157V31.3231H35.2323V0.6875H35.2286ZM46.1065 14.5065C47.3894 14.5065 48.4421 14.1065 49.2646 13.3103C50.087 12.5104 50.5 11.4975 50.5 10.2714C50.5 9.72943 50.4086 9.20239 50.2295 8.68656C50.0467 8.17447 49.7762 7.71846 49.4143 7.3185C49.0525 6.91855 48.5993 6.5971 48.0546 6.35787C47.5101 6.11491 46.8886 5.9953 46.1942 5.9953H40.8795V14.5102H46.11L46.1065 14.5065Z" fill="var(--fill-0, #CCCCCC)"/>
<path id="Vector_3" d="M167.495 0.6875H178.414C179.919 0.6875 181.286 0.930463 182.514 1.41639C183.743 1.90231 184.794 2.57139 185.672 3.42736C186.549 4.28334 187.226 5.30378 187.701 6.48495C188.176 7.66986 188.414 8.95943 188.414 10.3574C188.414 11.3853 188.245 12.346 187.912 13.2468C187.577 14.1439 187.119 14.9587 186.531 15.6839C185.946 16.4127 185.263 17.0519 184.48 17.6089C183.698 18.1658 182.876 18.5994 182.013 18.9134L181.973 19.2125L190.008 30.9793V31.3231H183.523L175.781 19.8142L173.146 15.9157V31.3231H167.499V0.6875H167.495ZM178.373 14.5065C179.655 14.5065 180.708 14.1065 181.531 13.3103C182.353 12.5104 182.766 11.4975 182.766 10.2714C182.766 9.72943 182.675 9.20239 182.496 8.68656C182.313 8.17447 182.042 7.71846 181.681 7.3185C181.319 6.91855 180.865 6.5971 180.322 6.35787C179.777 6.11491 179.155 5.9953 178.461 5.9953H173.146V14.5102H178.377L178.373 14.5065Z" fill="var(--fill-0, #CCCCCC)"/>
<path id="Vector_4" d="M73.5934 32.0038C71.3601 32.0038 69.2912 31.5889 67.3796 30.7627C65.4679 29.9367 63.8158 28.8003 62.4231 27.3613C61.0269 25.9222 59.934 24.2253 59.1372 22.2703C58.3439 20.3154 57.9456 18.2259 57.9456 16.0018C57.9456 13.7778 58.3439 11.6884 59.1372 9.73345C59.934 7.77854 61.0269 6.08154 62.4231 4.64244C63.8158 3.20336 65.4716 2.06704 67.3796 1.24098C69.2912 0.414904 71.3601 0 73.5934 0C75.8267 0 77.8956 0.414904 79.8072 1.24098C81.7188 2.06704 83.371 3.20336 84.7637 4.64244C86.1562 6.08154 87.2528 7.77854 88.0459 9.73345C88.8427 11.6884 89.2375 13.7778 89.2375 16.0018C89.2375 18.2259 88.8392 20.3154 88.0459 22.2703C87.2528 24.2253 86.1562 25.9222 84.7637 27.3613C83.3673 28.8003 81.7152 29.9367 79.8072 30.7627C77.8956 31.5889 75.8267 32.0038 73.5934 32.0038ZM73.5934 26.5278C74.9861 26.5278 76.2909 26.2698 77.5044 25.7578C78.718 25.2457 79.7779 24.5317 80.6845 23.6197C81.5909 22.7077 82.3 21.6013 82.8191 20.3042C83.3345 19.0071 83.594 17.5718 83.594 16.0057C83.594 14.4394 83.3345 13.0041 82.8191 11.707C82.3037 10.41 81.5909 9.30359 80.6845 8.39155C79.7779 7.4795 78.718 6.76556 77.5044 6.25347C76.2909 5.74139 74.9861 5.48347 73.5934 5.48347C72.2007 5.48347 70.8959 5.74139 69.6823 6.25347C68.4688 6.76556 67.4088 7.4795 66.5023 8.39155C65.5958 9.30359 64.8831 10.41 64.3677 11.707C63.8523 13.0041 63.5928 14.4394 63.5928 16.0057C63.5928 17.5718 63.8523 19.0071 64.3677 20.3042C64.8831 21.6013 65.5958 22.7077 66.5023 23.6197C67.4088 24.5317 68.4688 25.2457 69.6823 25.7578C70.8959 26.2698 72.2007 26.5278 73.5934 26.5278Z" fill="var(--fill-0, #CCCCCC)"/>
<path id="Vector_5" d="M101.205 32.0015C99.9217 32.0015 98.6936 31.8146 97.5239 31.4445C96.3542 31.0745 95.2796 30.5175 94.3037 29.7774C93.3277 29.0373 92.4761 28.129 91.7524 27.0599C91.025 25.991 90.4547 24.7425 90.038 23.3146L95.3527 21.1766C95.7438 22.7166 96.4273 23.9949 97.4033 25.0042C98.3792 26.0171 99.6622 26.5218 101.252 26.5218C101.837 26.5218 102.404 26.4433 102.948 26.2862C103.493 26.1293 103.979 25.9013 104.414 25.6022C104.845 25.3031 105.189 24.9257 105.437 24.4697C105.69 24.0137 105.814 23.4866 105.814 22.8885C105.814 22.2905 105.715 21.8045 105.521 21.3485C105.328 20.8925 104.999 20.4663 104.538 20.0665C104.078 19.6665 103.478 19.2814 102.74 18.9114C102.001 18.5414 101.088 18.1563 99.9984 17.7565L98.1562 17.0723C97.3484 16.7883 96.5297 16.4033 95.7073 15.9174C94.8849 15.4314 94.1391 14.8483 93.4703 14.1643C92.8013 13.4803 92.2494 12.6729 91.8181 11.7459C91.3869 10.8189 91.1712 9.7723 91.1712 8.60234C91.1712 7.43238 91.4014 6.28484 91.862 5.24572C92.3225 4.20659 92.9768 3.2908 93.8285 2.50586C94.6801 1.7209 95.6963 1.10788 96.8842 0.666813C98.0684 0.225743 99.388 0.00520832 100.839 0.00520832C102.29 0.00520832 103.65 0.210792 104.75 0.625696C105.85 1.0406 106.786 1.56764 107.554 2.21056C108.321 2.85347 108.943 3.55994 109.414 4.3262C109.889 5.0962 110.237 5.82508 110.46 6.50912L105.481 8.64719C105.203 7.79122 104.692 7.02122 103.953 6.33718C103.215 5.65315 102.203 5.30926 100.919 5.30926C99.6366 5.30926 98.6752 5.60082 97.8638 6.18766C97.056 6.77451 96.6503 7.53704 96.6503 8.47524C96.6503 9.41346 97.0414 10.1648 97.82 10.8077C98.6021 11.4506 99.8412 12.0711 101.544 12.6692L103.427 13.3121C104.626 13.7382 105.722 14.2315 106.709 14.7885C107.7 15.3455 108.552 16.0071 109.261 16.7771C109.973 17.5471 110.514 18.4255 110.891 19.4086C111.267 20.3917 111.454 21.5279 111.454 22.8101C111.454 24.4061 111.139 25.7854 110.514 26.9403C109.886 28.0954 109.085 29.0449 108.109 29.7849C107.133 30.5287 106.029 31.0819 104.805 31.4521C103.577 31.8221 102.378 32.009 101.208 32.009L101.205 32.0015Z" fill="var(--fill-0, #CCCCCC)"/>
<path id="Vector_6" d="M120.285 31.3194V6.1635H111.918V0.6875H134.298V6.1635H125.932V31.3194H120.285Z" fill="var(--fill-0, #CCCCCC)"/>
<path id="Vector_7" d="M149.77 32.0063C147.536 32.0063 145.467 31.5914 143.555 30.7654C141.643 29.9393 139.991 28.803 138.599 27.3639C137.202 25.9249 136.11 24.2278 135.313 22.2729C134.52 20.3179 134.121 18.2285 134.121 16.0045C134.121 13.7805 134.52 11.691 135.313 9.73604C136.106 7.78114 137.202 6.08414 138.599 4.64506C139.991 3.20596 141.647 2.06966 143.555 1.24358C145.467 0.417509 147.536 0.00260416 149.77 0.00260416C152.002 0.00260416 154.071 0.417509 155.983 1.24358C157.895 2.06966 159.547 3.20596 160.939 4.64506C162.332 6.08414 163.429 7.78114 164.222 9.73604C165.015 11.691 165.413 13.7805 165.413 16.0045C165.413 18.2285 165.015 20.3179 164.222 22.2729C163.429 24.2278 162.332 25.9249 160.939 27.3639C159.543 28.803 157.891 29.9393 155.983 30.7654C154.071 31.5914 152.002 32.0063 149.77 32.0063ZM149.77 26.5303C151.162 26.5303 152.467 26.2725 153.681 25.7603C154.893 25.2482 155.954 24.5343 156.86 23.6223C157.767 22.7102 158.479 21.6038 158.995 20.3067C159.51 19.0097 159.77 17.5743 159.77 16.0082C159.77 14.4421 159.51 13.0067 158.995 11.7096C158.479 10.4126 157.767 9.30619 156.86 8.39415C155.954 7.48211 154.893 6.76816 153.681 6.25608C152.467 5.74399 151.162 5.48607 149.77 5.48607C148.376 5.48607 147.072 5.74399 145.858 6.25608C144.645 6.76816 143.584 7.48211 142.678 8.39415C141.771 9.30619 141.059 10.4126 140.543 11.7096C140.028 13.0067 139.768 14.4421 139.768 16.0082C139.768 17.5743 140.028 19.0097 140.543 20.3067C141.059 21.6038 141.771 22.7102 142.678 23.6223C143.584 24.5343 144.645 25.2482 145.858 25.7603C147.072 26.2725 148.376 26.5303 149.77 26.5303Z" fill="var(--fill-0, #CCCCCC)"/>
<path id="Vector_8" d="M4.15965 31.5797C4.74083 31.5797 5.28179 31.4713 5.78621 31.2582C6.29062 31.0451 6.7329 30.7498 7.10939 30.3686C7.48587 29.9873 7.78194 29.5313 7.9976 28.9893C8.21325 28.451 8.31926 27.853 8.31926 27.2026C8.31926 26.5522 8.21325 25.9541 7.9976 25.4159C7.78194 24.8777 7.48587 24.4178 7.10939 24.0366C6.7329 23.6553 6.29062 23.3601 5.78621 23.147C5.28179 22.9339 4.74083 22.8255 4.15965 22.8255C3.57848 22.8255 3.03752 22.9339 2.5331 23.147C2.02869 23.3601 1.58641 23.6553 1.20992 24.0366C0.833439 24.4178 0.537369 24.8739 0.321713 25.4159C0.106058 25.9541 5.72202e-05 26.5522 5.72202e-05 27.2026C5.72202e-05 27.853 0.106058 28.451 0.321713 28.9893C0.537369 29.5275 0.833439 29.9873 1.20992 30.3686C1.58641 30.7498 2.02869 31.0451 2.5331 31.2582C3.03752 31.4713 3.57848 31.5797 4.15965 31.5797Z" fill="var(--fill-0, #CCCCCC)"/>
</g>
</svg>
