<svg preserveAspectRatio="none" width="100%" height="100%" overflow="visible" style="display: block;" viewBox="0 0 147.015 60.0062" fill="none" xmlns="http://www.w3.org/2000/svg">
<g id="Layer 1">
<path id="Vector" d="M60.3546 19.3789C63.1165 19.2144 65.8065 17.9036 65.9906 14.9852C66.1074 13.0258 64.5895 11.0116 61.5626 10.8746C60.0255 10.7568 58.4965 11.1916 57.2424 12.1032C56.4025 12.7671 55.8242 13.7149 55.6122 14.7751C55.3113 16.0311 55.4775 17.0907 56.0972 17.8991C56.8921 18.9495 58.428 19.4702 60.3546 19.3606" fill="var(--fill-0, #CCCCCC)"/>
<path id="Vector_2" d="M139.722 22.8728C139.34 23.7863 138.532 24.6997 137.809 24.8367L137.472 24.9281C137.472 24.9281 137.741 22.9413 137.75 22.343C137.75 19.6346 137.09 16.8075 132.927 17.1135C130.376 17.3008 126.689 19.6301 126.191 24.5033V24.5307V24.5627C126.186 24.596 126.186 24.6299 126.191 24.6632C125.58 26.3668 124.457 28.7737 123.636 28.8787C123.55 28.8885 123.462 28.8784 123.381 28.8491C123.299 28.8199 123.225 28.7722 123.164 28.7098C123.079 28.62 123.014 28.5129 122.973 28.3956C122.932 28.2782 122.916 28.1533 122.926 28.0292C123.008 27.2318 123.158 26.4432 123.375 25.6725C123.713 24.3234 123.942 22.9488 124.062 21.562C124.318 18.237 122.306 17.6113 120.245 17.8032C119 17.9409 117.833 18.4877 116.922 19.3606L116.19 20.2375C116.19 20.2375 116.504 18.5887 116.598 18.1411L111.941 18.3786L110.419 25.1473C109.936 25.8894 109.235 26.4569 108.416 26.7687L108.111 26.8509L108.07 26.5038C108.034 26.1608 107.975 25.8205 107.895 25.4853C107.778 24.7362 107.082 22.1557 104.612 22.4069C98.2217 23.0555 98.5361 31.0847 102.331 29.9018L102.78 29.7557L102.704 30.2124C102.255 33.4095 100.907 35.1359 99.0839 35.419C98.9501 35.4391 98.8136 35.4282 98.6845 35.387C98.5554 35.3459 98.4371 35.2757 98.3385 35.1816C98.1534 34.9675 98.013 34.7175 97.9258 34.4466C97.8386 34.1758 97.8063 33.8898 97.831 33.6058C97.831 32.0347 100.705 18.9039 100.705 18.9039L94.7772 19.2236C94.5032 20.4202 93.3581 25.6497 93.3581 25.6634L93.1829 26.3393C92.9584 27.23 92.8102 27.8146 92.7338 28.4311V28.4631C92.7338 28.5042 92.7024 28.5408 92.6889 28.5773C91.7908 31.0619 90.21 33.7474 88.966 33.9256C88.8534 33.9422 88.7386 33.9332 88.6299 33.8993C88.5212 33.8653 88.4212 33.8072 88.3373 33.7292C88.2414 33.6339 88.1662 33.5192 88.1167 33.3926C88.0672 33.2659 88.0444 33.13 88.0498 32.9938L88.1352 31.9114C88.1352 31.9114 91.1081 20.1553 91.3147 19.3789C90.6097 19.42 84.5559 19.6209 84.5559 19.6209L83.9856 21.763C83.797 20.0183 80.1639 17.7438 77.5008 20.2695C74.676 22.9459 73.9485 26.892 73.5802 30.7741L73.5353 30.9157C72.9919 35.6017 71.986 38.8217 68.7929 39.2921C68.1693 39.4411 67.5143 39.3669 66.9382 39.082C67.8423 38.4201 68.606 37.5798 69.1837 36.6111C70.3378 34.5832 69.772 32.8386 68.528 32.0438C66.0221 30.4179 63.3545 32.5006 62.9009 35.0628C62.6952 36.3356 62.9694 37.6405 63.6689 38.7166C62.8291 39.2373 62.142 39.7808 60.9743 39.968C60.6735 40.0284 60.3629 40.0147 60.0684 39.9281C59.7739 39.8415 59.504 39.6845 59.2813 39.4702C58.5582 38.5111 59.4654 35.3597 59.6001 34.9669C59.6001 34.9669 63.7677 21.6351 64.0146 20.8084C63.2467 20.8541 55.1721 21.2651 54.7769 21.288C54.5164 22.1192 53.5509 25.3985 52.5315 28.39C50.5465 34.2818 44.6814 42.3567 38.5199 44.1014C35.2461 45.0148 32.6818 44.9052 31.0291 43.9096C28.7837 42.5394 27.4679 39.2373 28.2493 34.565C28.5526 32.3311 29.1949 30.1586 30.1534 28.1251C35.1652 16.8577 43.5362 19.2464 43.0422 20.0959C42.4939 20.2939 41.9647 20.5432 41.4614 20.8404C40.1456 21.5985 38.0439 23.7497 37.9945 26.3576C37.9675 28.0521 38.4436 29.4085 39.3418 30.29C39.8372 30.7359 40.4234 31.065 41.0585 31.2537C41.6935 31.4424 42.3617 31.4861 43.0153 31.3816C44.6468 31.2403 46.1659 30.4786 47.2697 29.2486C48.3734 28.0186 48.9806 26.4106 48.9702 24.7454C49.0106 22.7129 48.4268 21.0916 47.2547 19.8767C45.382 17.9584 43.2129 17.0084 38.3852 17.2231C30.9887 17.5474 19.7615 23.1468 16.6942 35.1678C15.6613 39.2373 17.1837 44.0877 19.5998 46.2663C22.9545 49.2898 27.0727 50.3768 34.2401 48.8742C40.6306 47.5405 45.8176 43.019 49.6169 38.2873C49.6169 38.3649 49.6169 38.438 49.5899 38.5065C48.7367 41.9365 50.039 45.5675 55.6437 44.7362C59.0187 44.1386 62.2044 42.7292 64.9353 40.6257C66.2825 41.7721 68.528 42.4526 71.1596 41.9959C72.215 41.8132 74.941 41.0276 77.2897 37.4971C79.1444 34.6974 80.0067 29.2761 80.4917 26.3759C80.5847 25.482 80.7744 24.6013 81.0576 23.7497C81.2027 23.322 81.4966 22.963 81.8839 22.7404C82.8808 22.2836 83.4153 23.3021 83.2311 24.042C83.047 24.7819 82.0635 28.5134 82.0635 28.5134L81.8749 29.1071C81.2866 30.934 80.6264 32.9847 80.6085 35.1678C80.6085 36.7573 81.0216 38.0087 81.8569 38.7668C82.6159 39.4885 83.7117 39.7534 85.0005 39.5296C88.5214 38.9358 90.9779 35.2638 92.1276 33.1354L92.2848 32.8386L92.5317 32.4138L92.6799 33.2085C93.2907 36.3782 95.7652 37.6113 99.4522 36.9948C104.239 36.2 107.087 33.6195 107.882 29.2304L107.918 29.0432L108.097 28.9747C108.559 28.7914 108.996 28.5505 109.399 28.2576L109.759 27.9973L108.151 35.0765C108.834 34.9532 113.325 34.1219 113.684 34.0671C113.769 33.6104 115.597 25.0697 115.597 25.0697C115.916 23.5807 116.805 20.7445 117.874 20.6668C117.98 20.6538 118.088 20.6674 118.188 20.7064C118.289 20.7454 118.378 20.8086 118.449 20.8906C118.711 21.1971 118.848 21.5944 118.83 22.0005C118.749 23.0862 118.545 24.1589 118.224 25.1975C117.781 26.8423 117.481 28.5234 117.326 30.2215C117.101 33.1857 119.571 33.1354 120.276 33.0121C122.028 32.7244 124.318 31.7744 126.209 27.3396L126.326 27.7963C126.541 28.9153 127.178 29.9041 128.102 30.5505C129.025 31.1969 130.161 31.4493 131.266 31.2537C132.525 31.0869 133.716 30.5733 134.709 29.7684C135.702 28.9634 136.461 27.8977 136.902 26.6865L136.974 26.4901L137.14 26.4581C138.231 26.3256 139.713 25.024 140.063 23.5259C139.973 23.2965 139.862 23.0763 139.731 22.8682M66.552 33.4232C67.5535 33.4551 67.9576 34.0671 67.4187 35.3049C66.9184 36.2219 66.229 37.018 65.3978 37.6387C64.1224 35.6611 65.299 33.3958 66.552 33.4232ZM103.229 27.4857C102.919 27.8308 102.489 28.039 102.03 28.0658C101.379 28.1845 101.217 27.8237 101.177 27.673C101.037 27.0838 101.626 26.1247 102.192 25.8461C102.311 25.777 102.447 25.743 102.584 25.7479C102.721 25.7527 102.854 25.7962 102.969 25.8735C103.445 26.3987 103.229 27.4629 103.229 27.4629M133.7 26.7002C133.322 27.9242 132.801 29.2441 131.733 29.3948C131.577 29.4344 131.415 29.436 131.259 29.3995C131.103 29.3629 130.957 29.2894 130.834 29.1847C130.462 28.8468 130.309 28.5453 130.314 27.4401C130.314 24.8322 131.571 18.3056 133.376 18.2051C133.501 18.1946 133.627 18.2148 133.743 18.2641C133.858 18.3134 133.961 18.3903 134.041 18.4882C134.427 18.9039 134.593 19.726 134.517 20.6851V20.8038C134.517 20.8038 132.622 20.9135 132.469 23.8C132.449 24.3021 132.562 24.8005 132.795 25.2437C133.027 25.6869 133.372 26.0588 133.794 26.3211L133.7 26.7002ZM134.185 24.7682C133.556 24.38 133.565 23.2473 133.897 22.8271C133.955 22.7353 134.044 22.6678 134.147 22.6368C134.25 22.6058 134.361 22.6134 134.459 22.6581C134.449 23.37 134.357 24.0782 134.185 24.7682Z" fill="var(--fill-0, #CCCCCC)"/>
<path id="Vector_3" d="M60.099 0C53.2459 0.278602 48.481 4.97374 46.2176 7.76433C41.3625 6.24509 36.1988 6.0576 31.2495 7.22083C26.1659 8.39461 18.8637 11.208 13.5734 15.6794C4.27281 23.5533 -0.532437 33.0075 0.0468863 42.2836C0.383702 47.7963 2.948 52.5234 7.43888 55.9351C14.7545 61.4752 26.4084 60.0457 31.0923 59.1551C36.0323 58.2142 115.234 42.4663 125.85 40.2238C135.73 38.132 145.129 34.533 146.867 22.3658C146.963 21.6253 147.012 20.8793 147.015 20.1325C146.993 17.0039 145.983 14.0763 144.258 12.1078C141.087 8.49052 136.058 8.13884 132.546 8.18452C129.748 8.22105 109.642 8.91071 74.371 10.1713C73.9491 8.00731 72.9696 5.99614 71.5327 4.34346C69.6466 2.22882 66.1437 -0.223795 60.1124 0.018269M47.1562 9.23042C49.24 6.49007 53.7084 1.92281 60.1798 1.64878C65.5688 1.42498 68.681 3.58529 70.3382 5.43046C71.7393 7.02406 72.6442 9.00451 72.9384 11.1213L73.0417 11.8429L73.7557 11.8155C79.2975 11.6282 128.019 9.8744 132.586 9.81959C135.775 9.77849 140.338 10.0754 143.068 13.1811C144.514 14.8481 145.372 17.3464 145.417 20.032V20.1507C145.427 20.8155 145.383 21.48 145.286 22.1375C143.701 33.3044 134.85 36.6568 125.527 38.6298C115.112 40.8267 35.8617 56.5974 30.8004 57.5474C26.3096 58.3878 15.1991 59.7899 8.4134 54.6289C4.28628 51.5003 1.95551 47.198 1.64564 42.1877C1.10224 33.4323 5.68743 24.4713 14.6063 16.9262C19.6631 12.6376 26.7003 9.95204 31.5998 8.83307C36.453 7.68337 41.5233 7.91086 46.2581 9.49075L46.8059 9.67344L47.1562 9.23042Z" fill="var(--fill-0, #CCCCCC)"/>
</g>
</svg>
