<svg preserveAspectRatio="none" width="100%" height="100%" overflow="visible" style="display: block;" viewBox="0 0 115 58" fill="none" xmlns="http://www.w3.org/2000/svg">
<g id="Frame 8">
<path id="Vector" d="M59.5797 58C50.3269 58 43.0698 57.339 35.9337 55.9569C29.8256 54.755 23.899 52.9523 18.2143 50.3082C13.6181 48.1449 9.38484 45.561 5.81677 41.8954C2.73251 38.7105 0.555384 34.9848 0.0715778 30.538C-0.230801 27.3531 0.434432 24.3485 1.88585 21.5242C3.51869 18.3393 5.87725 15.8154 8.65913 13.592C13.7391 9.50579 19.6052 6.86175 25.7738 4.81862C31.4585 2.89568 37.1432 1.63375 43.0093 0.912646C51.476 -0.169009 59.8821 -0.289192 68.4092 0.552095C73.0658 0.972738 77.662 1.69384 82.1976 2.7755C87.9428 4.09752 93.4461 5.96037 98.647 8.66451C102.88 10.8278 106.811 13.4719 110.016 17.0774C112.375 19.7214 114.068 22.726 114.734 26.2714C115.58 30.9586 114.371 35.105 111.649 38.9509C108.746 43.0972 104.695 46.1018 100.34 48.5656C95.3813 51.3298 90.1804 53.2527 84.7376 54.6949C75.8477 56.9784 66.7763 58 59.5797 58ZM58.0073 53.7936C64.5992 53.7335 71.6144 53.1326 78.5691 51.7504C85.6447 50.3082 92.4785 48.1449 98.768 44.5394C102.457 42.4362 105.783 39.9724 108.263 36.4871C110.863 32.7614 111.589 28.7953 109.896 24.5288C108.807 21.8246 106.932 19.6012 104.755 17.7384C101.671 15.0343 98.1632 12.9911 94.4742 11.3086C89.4547 9.02506 84.1933 7.46267 78.811 6.32092C73.2472 5.17917 67.5625 4.51816 61.9383 4.33789C50.6898 3.97734 39.6227 4.9989 28.858 8.24386C24.6247 9.5058 20.5124 11.1884 16.6419 13.3517C12.7715 15.515 9.20341 18.0989 6.72391 21.8847C4.72821 24.8292 3.88155 28.0141 4.66773 31.5595C5.39344 34.8646 7.26819 37.4486 9.68722 39.672C12.9529 42.7366 16.7629 44.96 20.8752 46.8229C27.588 49.8275 34.7242 51.6303 41.9813 52.7119C47.0612 53.433 52.2621 53.7936 58.0073 53.7936Z" fill="var(--fill-0, white)"/>
<path id="Vector_2" d="M84.5562 28.7353C87.58 31.4995 89.7572 34.9247 92.3576 37.9894C92.7205 38.4701 93.1438 38.9509 93.5067 39.4316C93.93 40.0325 93.7486 40.3931 93.0833 40.3931C91.7529 40.3931 90.3619 40.4532 89.0315 40.3931C88.6686 40.3931 88.2453 40.1527 88.0034 39.8523C86.7334 38.2899 85.4634 36.6674 84.2539 35.0449C83.4677 34.0233 82.6815 33.0018 81.8953 31.9802C81.2906 31.199 80.5044 30.8385 79.5368 30.7784C78.3877 30.7183 77.2992 30.7183 76.1501 30.7183C75.6058 30.7183 75.5454 31.0788 75.5454 31.4995C75.5454 34.0233 75.5454 36.4871 75.5454 39.011C75.5454 40.2729 75.4244 40.3931 74.1544 40.3931C73.3682 40.3931 72.5821 40.3931 71.7959 40.3931C70.6468 40.3931 70.5259 40.2729 70.5259 39.1912C70.5259 33.783 70.5259 28.3747 70.5259 22.9664C70.5259 22.7261 70.4654 22.4857 70.4654 22.1852C70.4049 22.1852 70.3445 22.1251 70.284 22.1251C69.9816 22.666 69.6792 23.2068 69.3768 23.7476C66.7159 28.6151 63.9945 33.4825 61.3336 38.4101C60.5474 39.8523 59.3379 40.5734 57.705 40.4532C57.1607 40.3931 56.6165 40.4532 56.0722 40.4532C54.6208 40.4532 53.5322 39.7922 52.8065 38.5302C51.597 36.3669 50.3875 34.2036 49.1779 32.0403C47.3032 28.8554 45.6099 25.8508 43.9165 22.7261C43.6746 22.3054 43.3723 22.1251 42.828 22.1251C37.9294 22.1251 33.0309 22.1251 28.1324 22.1251C26.9229 22.1251 26.4391 22.6059 26.3786 23.8077C26.3786 24.3485 26.3786 24.8894 26.3786 25.3701C26.4391 26.2715 26.9229 26.7522 27.83 26.8123C28.1324 26.8123 28.4952 26.8123 28.7976 26.8123C32.7285 26.8123 36.599 26.8123 40.5299 26.8123C41.7394 26.8123 42.8885 26.9926 43.9165 27.6536C45.247 28.4949 45.9727 29.7568 46.0937 31.2591C46.2146 32.7614 46.2146 34.3238 46.0937 35.8862C45.9122 38.2899 44.2189 39.9724 41.7999 40.2128C41.0137 40.2729 40.288 40.333 39.5018 40.333C33.9381 40.333 28.3138 40.333 22.6896 40.333C21.5405 40.333 21.4196 40.2128 21.4196 39.0711C21.4196 38.2899 21.4196 37.4486 21.4196 36.6674C21.4196 36.0665 21.722 35.8261 22.2662 35.8261C22.5081 35.8261 22.75 35.8261 22.9919 35.8261C28.3743 35.8261 33.7566 35.8261 39.139 35.8261C40.5904 35.8261 41.1347 35.3454 41.1347 33.8431C41.1347 33.3623 41.1347 32.8816 41.1347 32.461C41.0742 31.3793 40.5904 30.8986 39.5018 30.8986C35.4499 30.8986 31.4585 30.8986 27.4067 30.8385C26.56 30.8385 25.7134 30.7784 24.8667 30.538C23.1129 30.0573 21.8429 28.9155 21.6615 27.1729C21.4196 25.2499 21.3591 23.2669 21.601 21.3439C21.9034 19.1205 23.6572 17.8586 25.8948 17.6783C26.681 17.6182 27.4067 17.6182 28.1929 17.6182C33.9985 17.6182 39.7437 17.6182 45.4889 17.6182C46.2751 17.6182 46.6984 17.9187 47.0008 18.5797C50.0246 24.1683 53.1089 29.7568 56.1931 35.3454C56.3141 35.5256 56.556 35.766 56.7374 35.766C56.9793 35.7059 57.2817 35.5256 57.4026 35.2853C58.9145 32.521 60.4264 29.6967 61.9383 26.8724C63.4502 24.0481 64.9621 21.2238 66.5345 18.3994C66.8369 17.8586 67.1997 17.6182 67.8649 17.6182C69.9816 17.6783 72.0982 17.6182 74.2149 17.6182C75.243 17.6182 75.4244 17.7384 75.4244 18.76C75.4244 21.2238 75.4244 23.6875 75.4244 26.1513C75.4244 26.7522 75.6058 26.9926 76.2106 26.9926C77.1177 26.9325 77.9644 26.9325 78.8715 26.9325C79.9601 26.9325 80.8068 26.5118 81.4115 25.6105C83.2863 23.1467 85.161 20.6829 87.0358 18.1591C87.3381 17.7384 87.701 17.5581 88.1848 17.5581C89.4548 17.5581 90.6643 17.5581 91.9343 17.5581C92.1762 17.5581 92.539 17.6783 92.66 17.7985C92.7205 17.9788 92.5995 18.3393 92.4181 18.5196C89.8176 21.8848 87.1567 25.1898 84.4958 28.4949C84.5563 28.6151 84.5562 28.6752 84.5562 28.7353Z" fill="var(--fill-0, white)"/>
</g>
</svg>
