<svg preserveAspectRatio="none" width="100%" height="100%" overflow="visible" style="display: block;" viewBox="0 0 139 22.2925" fill="none" xmlns="http://www.w3.org/2000/svg">
<g id="Frame 66">
<path id="Vector" d="M15.664 2.23623H6.62843C4.18638 2.23623 2.23273 4.19294 2.23273 6.63882V15.6536C2.23273 18.0995 4.22126 20.0562 6.62843 20.0562H15.6291C18.0712 20.0562 20.0248 18.0995 20.0248 15.6536V6.63882C20.0597 4.19294 18.0712 2.23623 15.664 2.23623ZM16.9199 11.1462C16.9199 14.3259 14.3383 16.9115 11.1637 16.9115C7.989 16.9115 5.4074 14.3259 5.37252 11.1462C5.37252 7.96658 7.95412 5.38094 11.1288 5.38094C14.3383 5.38094 16.9199 7.96658 16.9199 11.1462ZM18.3852 5.38094C18.3852 6.18458 17.7572 6.81352 16.9548 6.81352C16.1524 6.81352 15.5245 6.18458 15.5245 5.38094C15.5245 4.57729 16.1524 3.94835 16.9548 3.94835C17.7223 3.94835 18.3852 4.57729 18.3852 5.38094ZM11.1288 7.61717C9.17514 7.61717 7.60525 9.18952 7.60525 11.1462C7.60525 13.1029 9.17514 14.6753 11.1288 14.6753C13.0824 14.6753 14.6523 13.1029 14.6523 11.1462C14.6872 9.18952 13.0824 7.61717 11.1288 7.61717ZM22.2925 15.6536C22.2925 19.3225 19.3271 22.2925 15.664 22.2925H6.62843C2.96535 22.2925 0 19.3225 0 15.6536V6.63882C0 2.97 2.96535 0 6.62843 0H15.6291C19.2922 0 22.2576 2.97 22.2576 6.63882V15.6536H22.2925Z" fill="var(--fill-0, white)"/>
<path id="Vector_2" d="M69.5 0.655661C63.7066 0.655661 59.0094 5.37701 59.0094 11.2003C59.0094 16.4866 62.8839 20.8521 67.9317 21.6148V13.9946H65.3361V11.2231H67.9317V9.37869C67.9317 6.32514 69.4117 4.9851 71.9364 4.9851C73.1455 4.9851 73.7854 5.07561 74.0879 5.11603V7.53514H72.3657C71.2939 7.53514 70.9197 8.55709 70.9197 9.70821V11.2231H74.0608L73.635 13.9946H70.9197V21.6368C76.04 20.9391 79.9906 16.5385 79.9906 11.2003C79.9906 5.37701 75.2934 0.655661 69.5 0.655661Z" fill="var(--fill-0, white)"/>
<path id="Subtract" fill-rule="evenodd" clip-rule="evenodd" d="M136.523 22.2925H119.184C117.817 22.2925 116.708 21.1835 116.708 19.8155V2.47694C116.708 1.10896 117.817 0 119.184 0H136.523C137.891 0 139 1.10896 139 2.47694V19.8155C139 21.1835 137.891 22.2925 136.523 22.2925ZM132.596 19.1957H135.904V12.4C135.904 9.52463 134.274 8.13437 131.997 8.13437C129.719 8.13437 128.761 9.90808 128.761 9.90808V8.46229H125.573V19.1957H128.761V13.5613C128.761 12.0516 129.456 11.1532 130.786 11.1532C132.009 11.1532 132.596 12.0165 132.596 13.5613V19.1957ZM119.804 5.07621C119.804 6.16998 120.684 7.05684 121.769 7.05684C122.855 7.05684 123.735 6.16998 123.735 5.07621C123.735 3.98244 122.855 3.09559 121.769 3.09559C120.684 3.09559 119.804 3.98244 119.804 5.07621ZM123.448 19.1957H120.123V8.46229H123.448V19.1957Z" fill="var(--fill-0, white)"/>
</g>
</svg>
